<?xml version="1.0" encoding="utf-8"?><svg xmlns="http://www.w3.org/2000/svg" xmlns:xlink="http://www.w3.org/1999/xlink" width="1366" height="669" preserveAspectRatio="xMidYMid" viewBox="0 0 1366 669" style="z-index:1;margin-right:-2px;display:block;background-repeat-y:initial;background-repeat-x:initial;background-color:rgb(255, 255, 255);animation-play-state:paused" ><g transform="translate(683,334.5) scale(1,1) translate(-683,-334.5)" style="transform:matrix(1, 0, 0, 1, 0, 0);animation-play-state:paused" ><linearGradient id="lg-0.4680662214839444" x1="0" x2="1" y1="0" y2="0" style="animation-play-state:paused" ><stop stop-color="#ff00ff" offset="0" style="animation-play-state:paused" ></stop>

  
<stop stop-color="#00ffff" offset="1" style="animation-play-state:paused" ></stop></linearGradient>
<path d="M 0 0 L 0 578.828 Q 136.6 563.344 273.2 527.42 T 546.4 517.577 T 819.6 415.552 T 1092.8 314.12 T 1366 275.64 L 1366 0 Z" fill="url(#lg-0.4680662214839444)" opacity="0.4" style="opacity:0.4;animation-play-state:paused" ></path>
<path d="M 0 0 L 0 609.914 Q 136.6 589.997 273.2 546.533 T 546.4 493.827 T 819.6 439.046 T 1092.8 327.954 T 1366 324.591 L 1366 0 Z" fill="url(#lg-0.4680662214839444)" opacity="0.4" style="opacity:0.4;animation-play-state:paused" ></path>
<path d="M 0 0 L 0 648.465 Q 136.6 571.44 273.2 527.379 T 546.4 482.894 T 819.6 461.524 T 1092.8 387.202 T 1366 275.473 L 1366 0 Z" fill="url(#lg-0.4680662214839444)" opacity="0.4" style="opacity:0.4;animation-play-state:paused" ></path>
<path d="M 0 0 L 0 578.043 Q 136.6 536.672 273.2 509.267 T 546.4 520.16 T 819.6 419.032 T 1092.8 343.542 T 1366 310.186 L 1366 0 Z" fill="url(#lg-0.4680662214839444)" opacity="0.4" style="opacity:0.4;animation-play-state:paused" ></path>
<path d="M 0 0 L 0 608.617 Q 136.6 569.312 273.2 531.864 T 546.4 434.299 T 819.6 463.77 T 1092.8 376.633 T 1366 341.51 L 1366 0 Z" fill="url(#lg-0.4680662214839444)" opacity="0.4" style="opacity:0.4;animation-play-state:paused" ></path></g></svg>